<svg width="32" height="23" viewBox="0 0 32 23" fill="none" xmlns="http://www.w3.org/2000/svg">
<path d="M31.3092 3.05501C30.7185 2.75966 29.98 3.00571 29.6603 3.62103L28.1587 6.62391L24.4176 1.01205C24.1715 0.667464 23.8022 0.470642 23.3839 0.470642H8.61606C8.19764 0.470642 7.82844 0.667464 7.58231 1.01205L3.84113 6.62391L2.33973 3.62103C2.01976 3.00571 1.28137 2.75966 0.690738 3.05501C0.0754119 3.37498 -0.170801 4.11337 0.124556 4.70401L2.31512 9.08521H29.685L31.8753 4.70401C32.1709 4.11329 31.9245 3.37498 31.3092 3.05501ZM16 15.2385C13.9642 15.2385 12.308 16.8946 12.308 18.9304C12.308 20.9663 13.9642 22.6224 16 22.6224C18.0358 22.6224 19.6919 20.9663 19.6919 18.9304C19.6919 16.8946 18.0358 15.2385 16 15.2385Z" fill="url(#paint0_linear_1_157)"/>
<defs>
<linearGradient id="paint0_linear_1_157" x1="16" y1="22.6224" x2="16" y2="0.470642" gradientUnits="userSpaceOnUse">
<stop stop-color="#FFC2CC"/>
<stop offset="1" stop-color="#FFF2F4"/>
</linearGradient>
</defs>
</svg>
